<?xml version="1.0" encoding="utf-8"?>
<!-- Generator: Adobe Illustrator 25.1.0, SVG Export Plug-In . SVG Version: 6.00 Build 0)  -->
<svg version="1.1" xmlns="http://www.w3.org/2000/svg" xmlns:xlink="http://www.w3.org/1999/xlink" x="0px" y="0px"
	 viewBox="0 0 450 450" style="enable-background:new 0 0 450 450;" xml:space="preserve">
<style type="text/css">
	.st0{fill:#FFFFFF;}
	.st1{fill:none;stroke:#000000;stroke-miterlimit:10;}
</style>
<g id="pill_x5F_shape">
	<g>
		<path class="st0" d="M92,302c-42.5,0-77-34.5-77-77s34.5-77,77-77h266c42.5,0,77,34.5,77,77s-34.5,77-77,77H92z"/>
		<path d="M358,149c41.9,0,76,34.1,76,76c0,41.9-34.1,76-76,76H92c-41.9,0-76-34.1-76-76c0-41.9,34.1-76,76-76H358 M358,147H92
			c-43.1,0-78,34.9-78,78v0c0,43.1,34.9,78,78,78h266c43.1,0,78-34.9,78-78v0C436,181.9,401.1,147,358,147L358,147z"/>
	</g>
</g>
<g id="text1">
	<g>
		<path class="st1" d="M118.4,237.8c-5.7,5.6-10.6,8.3-18.7,8.3c-13.5,0-22.8-9.4-22.8-22.7c0-13.6,10.6-22.6,22.9-22.6
			c7.1,0,14,3.1,18.8,8.6l-5.8,5.5c-3.9-4.1-8.2-6.3-13.2-6.3c-8.1,0-14.7,6.2-14.7,14.7c0,8.9,6.4,14.8,14.9,14.8
			c5.3,0,8.9-2.2,13-6.2L118.4,237.8z"/>
		<path class="st1" d="M124.1,200.8h8V245h-8V200.8z"/>
		<path class="st1" d="M147.5,205.3c0,2.8-2.3,5.1-5.1,5.1c-2.9,0-5.1-2.6-5.1-5.5c0-2.8,2.3-4.9,5.1-4.9
			C145.3,200,147.5,202.4,147.5,205.3z M138.5,213.1h8V245h-8V213.1z"/>
		<path class="st1" d="M184.5,239.2c-3.4,4.4-8.2,6.7-14.5,6.7c-10.9,0-17.9-7.4-17.9-16.7c0-9.5,7.4-16.9,18-16.9
			c6.2,0,11.5,2.6,14.7,7.3l-6.7,3.7c-2.3-2.4-4.5-3.6-8-3.6c-6.1,0-10,4.1-10,9.7c0,5.4,3.8,9.2,9.7,9.2c3.5,0,6.4-1.2,8.3-3.7
			L184.5,239.2z"/>
		<path class="st1" d="M192.1,200.8h8v25.4l11.8-13.1h10l-13.7,15.3l15.4,16.6h-9.9l-13.6-14.7V245h-8V200.8z"/>
		<path class="st1" d="M244.6,201.9h8.2v16.2h14.5v-16.2h8.2V245h-8.2v-18.8h-14.5V245h-8.2V201.9z"/>
		<path class="st1" d="M314.3,238.8c-3.4,4.9-7.9,7-14.6,7c-10.1,0-16.7-7.4-16.7-16.8c0-8.7,6.3-16.7,16.6-16.7
			c10.1,0,16.9,7.2,16.9,17.3c0,0.7-0.1,1.1-0.1,1.8h-25.7c0.8,4.7,4.4,7.4,8.9,7.4c3.4,0,5.7-1,7.9-3.1L314.3,238.8z M308.5,225.1
			c-1.1-3.7-4.5-6-8.8-6c-4,0-7,2-8.6,6H308.5z"/>
		<path class="st1" d="M327.9,217.1c1.5-3.3,4.1-4.9,6.7-4.9c1.7,0,2.7,0.5,3.5,0.8l-2.5,6.8c-0.6-0.3-1.5-0.7-2.3-0.7
			c-2.3,0-4.1,2.6-4.3,7.3c-0.1,1.7-0.1,3.7-0.1,5.5V245h-8v-31.9h6.9V217.1z"/>
		<path class="st1" d="M371.5,238.8c-3.4,4.9-7.9,7-14.6,7c-10.1,0-16.7-7.4-16.7-16.8c0-8.7,6.3-16.7,16.6-16.7
			c10.1,0,16.9,7.2,16.9,17.3c0,0.7-0.1,1.1-0.1,1.8h-25.7c0.8,4.7,4.4,7.4,8.9,7.4c3.4,0,5.7-1,7.9-3.1L371.5,238.8z M365.6,225.1
			c-1.1-3.7-4.5-6-8.8-6c-4,0-7,2-8.6,6H365.6z"/>
	</g>
	<g>
	</g>
	<g>
	</g>
	<g>
	</g>
	<g>
	</g>
	<g>
	</g>
	<g>
	</g>
	<g>
	</g>
	<g>
	</g>
	<g>
	</g>
	<g>
	</g>
	<g>
	</g>
	<g>
	</g>
	<g>
	</g>
	<g>
	</g>
	<g>
	</g>
</g>
</svg>
