<svg id="Layer_1" data-name="Layer 1" xmlns="http://www.w3.org/2000/svg" viewBox="0 0 488 489"><defs><style>.cls-1{fill:#0071bc;}.cls-2{fill:#fff;}</style></defs><path class="cls-1" d="M299.88,536.88A237.11,237.11,0,0,1,132.65,132.29,236.75,236.75,0,0,1,467.11,467.47,234.71,234.71,0,0,1,299.88,536.88Z" transform="translate(-55.88 -55.38)"/><path class="cls-2" d="M299.88,70.38A229.54,229.54,0,0,1,461.8,462.17a229.25,229.25,0,1,1-251-373.77,227.11,227.11,0,0,1,89.12-18m0-15c-134.76,0-244,109.47-244,244.5s109.24,244.5,244,244.5,244-109.47,244-244.5-109.24-244.5-244-244.5Z" transform="translate(-55.88 -55.38)"/><path class="cls-2" d="M142.68,249.68h13.7v27h24.2v-27h13.7v71.8h-13.7v-31.4h-24.2v31.4h-13.7Z" transform="translate(-55.88 -55.38)"/><path class="cls-2" d="M281.78,285.78a37.35,37.35,0,1,1-74.7-.3,37.35,37.35,0,1,1,74.7.3Zm-60.9,0c0,14.6,11,24.3,23.7,24.3,13,0,23.4-10.7,23.4-24.4,0-13.2-9.9-24.7-23.6-24.7C231.48,261,220.88,271,220.88,285.78Z" transform="translate(-55.88 -55.38)"/><path class="cls-2" d="M284.58,249.68h14.1l18,51,18.4-51h14l-25.9,71.8h-13.1Z" transform="translate(-55.88 -55.38)"/><path class="cls-2" d="M360.18,249.68h39.2v13.4h-25.5v12.8h25.5v13.4h-25.5v18.8h25.5v13.4h-39.2Z" transform="translate(-55.88 -55.38)"/><path class="cls-2" d="M413,249.68h16.7c9.1,0,15.5,1.1,20.3,5.8a20.83,20.83,0,0,1,5.8,15c0,9.4-4.7,15.8-13.8,19.1l17,31.9h-14.9L428,291.08h-1.3v30.4H413Zm13.7,28.1H433c6.2,0,9.4-2.5,9.4-7.4,0-4.7-3.3-7.3-9.8-7.3h-5.9Z" transform="translate(-55.88 -55.38)"/></svg>