<svg id="Layer_1" data-name="Layer 1" xmlns="http://www.w3.org/2000/svg" viewBox="0 0 600 525.85"><g id="Fh521z.tif"><path d="M324,36.8c8.09.59,16.17,1.29,24.26,1.76,19.83,1.16,39.59,3.09,58.57,9.51C480,72.79,525.16,124.1,541,202.35c3,15,3.09,30.65,4.51,46,.09,1,.12,2,.2,3.43,7.18.38,14.3.77,21.41,1.12,7.57.37,15.15.53,22.7,1.12a20,20,0,0,1,7.36,2.34c1.26.65,2.89,2.68,2.67,3.7a6,6,0,0,1-3.43,3.56,21,21,0,0,1-7.24,1.28c-14.19.11-28.39.05-42.58.05h-3.23c-4.06,11.42-7.74,22.56-12,33.5-15.51,40.29-36.52,76.95-68.11,106-13.47,12.38-28,24-46.23,27.94a59.9,59.9,0,0,1-21.61.46c-12.78-2-21.29-12.48-22.56-25.95a49.2,49.2,0,0,1,4.27-26.24c7.92-16.78,15.58-33.7,23.31-50.58a35.08,35.08,0,0,0,1.86-5.21c1.84-6.67.38-10.87-5.26-14.66-3.46-2.33-7.08-4.39-11.05-6.82-.89,1.34-1.74,2.55-2.53,3.81-14.54,23.24-28.66,46.78-43.73,69.65C327,396.15,311,412.17,291.12,423.75c-9.07,5.3-18.68,9.31-29.11,10.18-16.33,1.36-28.56-8.74-31.4-25.48-.7-4.14-1-8.37-1.37-12.05-3.72,3.52-7.4,7.12-11.2,10.57-8.18,7.41-16,15.39-24.76,21.92-9.91,7.36-21.39,11.48-33.85,9.81-18.37-2.47-30.76-15.62-33.85-35.1a80.09,80.09,0,0,1,5-43.69c15.53-37.52,40.57-65.28,78.51-78.82,13-4.64,26.52-6.39,40.29-4.1a50.32,50.32,0,0,1,27.9,14.66c1.27,1.27,2.56,2.52,3.8,3.74,4.25-4.12,8-8.36,12.34-11.8a44,44,0,0,1,11.8-6.81c6.33-2.35,11.36,1.89,9.69,8.55a102.17,102.17,0,0,1-8.43,23C296.54,327,283,343,268.9,358.22c-13.33,14.39-17,31.57-15.06,50.58,1,10.1,8,14.88,17.62,12.55,17-4.13,29.83-14.91,41.2-27.88,21-24,38.12-51,54.39-78.56,2.94-5,5.84-10,8.95-15.34-1.35-1.16-2.61-2.21-3.84-3.3-7.11-6.33-9.85-14.22-7.86-23.79,2.13-10.26,7.14-18.54,15.92-24,10.14-6.28,18.88-1.38,18.69,10.9-.08,5.4-1.8,10.9-3.49,16.11-1.52,4.69-4,9.05-6.31,14,3.07,1.28,6.05,2.54,9.05,3.77,6,2.47,12.14,4.65,18,7.46,11.34,5.45,16,14.77,13,27.29a108.13,108.13,0,0,1-7.38,20.33c-5.72,12.19-12.19,24-18.05,36.1-4,8.35-5.77,17.22-3.77,26.59,1.26,5.93,4.4,8.8,10.23,9.32,7.4.67,14.17-1.37,20.62-4.92,13.73-7.57,24.25-19,35-30.35,22-23.2,30.64-52.66,37.5-83,2.72-12.05,4.15-24.41,6.26-37.17h-5c-20.12,0-40.24,0-60.36,0a23.78,23.78,0,0,1-8.14-1c-1.94-.72-4.51-2.67-4.77-4.41s1.52-4.52,3.17-5.78,4.12-1.45,6.25-1.5c21.77-.51,43.53-.89,65.3-1.31,1,0,1.89-.16,3.21-.27,0-3.92.15-7.75,0-11.55-1.35-29.32-5.67-58.07-18.27-84.65-28-59.05-74.08-94.13-135.72-107.1-27.09-5.7-54.05-.94-80.55,5.85C170.49,79.87,79.08,169.3,47.43,275.59c-9.51,32-14.48,64.75-11,98.11C44.79,455.08,84.06,513,158.76,543c13.89,5.59,28.1,9.87,43,11.33,15.94,1.56,31.65-.44,47.26-3.2,35.36-6.24,68.24-19.62,99.48-37.72a52.8,52.8,0,0,1,13.81-5.23c3.51-.87,7.35,0,9.54,3.53s1.2,7.52-1.21,10.35c-3,3.57-6.39,7.44-10.41,9.44-33.25,16.59-68,27.67-105.07,30.35a254.78,254.78,0,0,1-47.35-.69c-9.83-1.12-19.8-.91-29.64-2-37.63-4.08-72.17-16.83-102.35-40.88C36,486.61,12.35,444.63,3.38,393.56c-1.2-6.85-1.81-13.82-2.74-20.72a12,12,0,0,0-.8-2.31V331.92a25.61,25.61,0,0,0,.9-3.6C3.55,303.6,8,279.19,17,256.06c33.49-85.82,89.72-149.79,170.79-189.43,27.47-13.43,56.1-23.28,86.37-27.4,6.12-.83,12.24-1.62,18.36-2.42ZM154.28,398.24c.7,3.72,1.42,11,3.54,17.87,2.47,8,9.55,11.44,17.49,9.91a38.33,38.33,0,0,0,20.7-10.8c10-10.22,20.09-20.38,29.72-31a69.61,69.61,0,0,0,11.17-15.81c9.11-18.59,18.45-37,30-54.11.92-1.35,1.65-3.65,1.19-5.06-3.59-10.92-9.87-19.38-21-22.91-12.46-3.95-23.92-.86-34.84,5.53-15.1,8.84-26.5,21.64-35.95,36.51C163.49,348.55,155.23,370.31,154.28,398.24Z" transform="translate(0.16 -36.8)"/></g></svg>