<?xml version="1.0" encoding="utf-8"?>
<!-- Generator: Adobe Illustrator 25.1.0, SVG Export Plug-In . SVG Version: 6.00 Build 0)  -->
<svg version="1.1" xmlns="http://www.w3.org/2000/svg" xmlns:xlink="http://www.w3.org/1999/xlink" x="0px" y="0px"
	 viewBox="0 0 565.1 537.4" style="enable-background:new 0 0 565.1 537.4;" xml:space="preserve">
<g id="Star_x5F_shape_layer">
	<g id="Star_x5F_Shape">
		<path d="M282.5,6.8l84.6,171.5c0.4,0.9,1.3,1.5,2.3,1.6l189.2,27.5L421.7,340.8c-0.7,0.7-1,1.7-0.9,2.7L453.2,532l-169.2-89
			c-0.9-0.5-1.9-0.5-2.8,0l-169.2,89l32.3-188.5c0.2-1-0.2-2-0.9-2.7L6.4,207.4l189.2-27.5c1-0.1,1.8-0.8,2.3-1.6L282.5,6.8
			 M282.5,0l-87.3,176.9L0,205.3L141.3,343l-33.4,194.5l174.6-91.8l174.6,91.8L423.8,343l141.3-137.7l-195.2-28.4
			C369.9,176.9,282.5,0,282.5,0z"/>
	</g>
</g>
<g id="star_x5F_text_layer">
	<g id="Star_Text">
		<path d="M214.4,229.1c12.8,0,17.8,4,17.8,7.9c0,6.6-10.3,9.7-14,9.7c-0.9,0-1.4-0.2-1.4-0.5s0.7-0.8,1.9-1
			c4.9-1.1,11.2-3.8,11.2-8c0-3.1-4.4-4.6-13.8-4.6c-15.6,0-39.9,10.6-39.9,20.5c0,3.1,2,4,7.1,4c6.2,0,14.8-2.5,22-2.5
			c7.6-0.1,13.7,2.2,13.7,8.5c0,14.6-23.2,28.9-46.4,28.9c-9.8,0-15.4-4-15.4-8.9c0-7.6,13.6-13,23.1-13c1.1,0,1.8,0.2,1.8,0.7
			s-0.7,1-2.3,1.2c-15.6,2.2-19.9,6.8-19.9,10.6c0,3.4,5.1,4.9,13.2,4.9c19.2,0,43.4-10.4,43.4-23c0-4.3-5.5-5.2-12.6-5.2
			c-5.7,0-12.4,0.6-18.4,0.6c-7.6,0-13.6-1.3-13.6-7.1C172.1,240.3,197.5,229.1,214.4,229.1z"/>
		<path d="M309.8,228.8c0.7,0,1,0.2,1,0.6c0,1-2.7,2-5.6,2.5c-11.9,2.5-36.2,2-52.4,4.9c-9.3,1.6-16,4.5-16,9.8c0.2,2,1.3,3.8,3,4.9
			c1.4,0.9,3.1,1,3.1,2c0,0.5-0.5,0.9-1.1,0.9c-4-0.3-7.1-3.5-7.2-7.5c0-8.2,7.3-12.3,17.3-14.3c19-4,47.8-0.7,56.6-3.5
			C308.9,228.9,309.4,228.9,309.8,228.8z M279.5,236.8c0.3,0,0.6,0.2,0.7,0.6c0,0,0,0,0,0c-0.1,0.5-0.3,1-0.7,1.4
			c-6.4,8.1-12.3,16.5-17.6,25.4c-6.8,11.1-12.3,21.4-16.4,28.6c-1.3,2.2-3.6,4.5-6.3,4.5c-1,0-1.5-0.5-1.5-1.1
			c0-3.1,11-20.1,20.1-33.4C265.1,251.8,276.7,236.8,279.5,236.8L279.5,236.8z"/>
		<path d="M319.4,279.2c-8.2,7.4-16.7,12.7-25.6,12.7c-7.7,0-13.6-5.1-13.6-15.7c0-28,29.3-47,54.9-47c12.2,0,18.5,5.9,18.5,12.1
			c0,1.8-0.5,3.6-1.6,3.6c-0.3,0-0.6-0.4-0.6-1.1s0.2-1.6,0.2-2.5c0-5.2-5.2-10.4-16.5-10.4c-21.7,0-49,19-49,45.5
			c0,8.6,2.5,13.2,8.2,13.2c8.5,0,16.6-5.2,24.8-12.5c-0.1-0.5-0.1-1-0.1-1.4c0-4,2.9-12.7,7.4-18.5c6.4-8,14.2-12.6,17.8-12.6
			c1.1-0.1,2,0.7,2.1,1.8c0,0.1,0,0.2,0,0.2c0,2.9-6.3,11.5-12.5,18.2c-3.1,3.4-6.4,6.8-9.5,9.9c-0.3,1-0.4,2-0.5,3
			c0,4.8,2.5,6.3,5,6.3c3.7,0,8.7-3.9,13.9-11.5c0.1-0.3,0.4-0.5,0.7-0.5c0.4,0,0.8,0.3,0.8,0.7c-0.1,0.4-0.2,0.7-0.4,1
			c-5.3,8.1-11,12.4-15.7,12.4C323.9,286.3,320.2,283.3,319.4,279.2z M325.3,271.2c2.3-2.3,4.6-4.7,6.9-7.2
			c6.2-6.6,12.2-15.1,12.2-17.1c0-0.3-0.2-0.6-0.5-0.7c-0.1,0-0.1,0-0.2,0c-1.1,0-4.9,2.7-11.9,12.8
			C329.1,262.7,327,266.8,325.3,271.2L325.3,271.2z"/>
		<path d="M381.4,273.8c-8.2,9.5-17.8,18.1-24.8,18.1c-6.7,0-10.9-4.2-10.9-11.2c0-21.5,29.4-51.4,64.3-51.4
			c11.5,0,19.4,4,19.4,10.6c0,14-21.8,17-36.2,19.1c-1.2,1.6-2.3,3.2-3.5,4.8c-1.6,2.1-3.3,4.3-5.1,6.5c6,6,12.5,11.5,19.6,16.3
			c1.1,0.8,1.5,1.4,1.5,2.1c0,1.1-0.9,2.1-2,2.2C400.9,290.8,387.7,280.2,381.4,273.8z M356.2,290.1c5.6,0,14.4-9.8,22.2-19.8
			c-1.2-1.6-1.9-3.5-2.1-5.5c0-3.4,4.6-5.2,11.1-6.6c4.8-6.8,11-15.2,14-15.2c0.9,0,1.7,0.5,1.7,1.3c0,0.5-0.2,0.9-0.5,1.3
			c-2.8,3.8-5.4,7.5-8,11.2c13.4-2.5,29-5.5,29-17.5c0-5.2-4.6-8.2-13.6-8.2c-30.8,0-61.7,30.1-61.7,50.2
			C348.3,286.6,351.3,290.1,356.2,290.1z M381.2,266.7c1.2-1.6,2.4-3.2,3.5-4.8l1.3-1.7c-1,0.2-2,0.5-2.7,0.7
			c-2.1,0.7-3.4,1.8-3.4,3.5C380,265.2,380.5,266,381.2,266.7L381.2,266.7z"/>
	</g>
</g>
</svg>
