<svg xmlns="http://www.w3.org/2000/svg" viewBox="0 0 565.09 537.43"><g id="Star_Shape"><path d="M299.88,37.94,384.5,209.4a3,3,0,0,0,2.26,1.64L576,238.54,439.06,372a3,3,0,0,0-.86,2.66l32.32,188.45-169.24-89a3,3,0,0,0-2.8,0l-169.24,89,32.32-188.45a3,3,0,0,0-.86-2.66L23.78,238.54,213,211a3,3,0,0,0,2.26-1.64L299.88,37.94m0-6.78L212.57,208.08,17.34,236.44,158.61,374.15,125.26,568.6l174.62-91.81L474.5,568.6,441.15,374.15,582.42,236.44,387.19,208.08,299.88,31.16Z" transform="translate(-17.34 -31.16)"/></g><g id="Star_Text"><path d="M231.78,260.25c12.75,0,17.77,4.05,17.77,7.87,0,6.6-10.27,9.68-14,9.68-.9,0-1.35-.23-1.35-.53s.68-.75,1.95-1c4.88-1.13,11.25-3.83,11.25-8,0-3.15-4.42-4.57-13.8-4.57-15.6,0-39.9,10.57-39.9,20.55,0,3.15,2,4,7.05,4,6.23,0,14.78-2.55,22-2.55,7.65-.07,13.72,2.18,13.72,8.48,0,14.62-23.25,28.87-46.42,28.87-9.83,0-15.45-4-15.45-8.93,0-7.57,13.57-13,23.1-13,1.12,0,1.8.23,1.8.68s-.68,1-2.33,1.2c-15.6,2.17-19.87,6.82-19.87,10.58,0,3.37,5.1,4.87,13.2,4.87,19.2,0,43.42-10.35,43.42-23,0-4.34-5.47-5.24-12.6-5.24-5.7,0-12.45.6-18.37.6-7.58,0-13.58-1.28-13.58-7.13C189.4,271.42,214.83,260.25,231.78,260.25Z" transform="translate(-17.34 -31.16)"/><path d="M327.17,260c.68,0,1,.22,1,.6,0,1-2.7,1.95-5.62,2.55-11.93,2.55-36.23,1.95-52.43,4.87-9.3,1.65-16,4.5-16,9.83a6.25,6.25,0,0,0,3,4.87c1.35.9,3.07,1.05,3.07,1.95,0,.53-.45.9-1.12.9a7.77,7.77,0,0,1-7.2-7.5c0-8.17,7.27-12.3,17.32-14.32,19-4,47.78-.68,56.63-3.53A6,6,0,0,1,327.17,260Zm-30.37,8a.62.62,0,0,1,.68.6,2.48,2.48,0,0,1-.68,1.35,234.26,234.26,0,0,0-17.62,25.35c-6.83,11.1-12.3,21.37-16.43,28.65-1.27,2.17-3.6,4.5-6.3,4.5-1,0-1.5-.45-1.5-1.13,0-3.15,10.95-20.1,20.1-33.44C282.48,283,294,268,296.8,268Z" transform="translate(-17.34 -31.16)"/><path d="M336.78,310.34C328.53,317.69,320.05,323,311.2,323c-7.72,0-13.65-5.1-13.65-15.68,0-28,29.33-47,54.9-47,12.22,0,18.45,5.85,18.45,12.15,0,1.8-.53,3.6-1.58,3.6-.3,0-.6-.37-.6-1.12s.23-1.65.23-2.55c0-5.25-5.25-10.35-16.5-10.35-21.67,0-49,19-49,45.52,0,8.62,2.55,13.2,8.25,13.2,8.55,0,16.65-5.18,24.75-12.45a8.11,8.11,0,0,1-.08-1.43c0-4.05,2.85-12.74,7.35-18.52,6.37-8,14.17-12.6,17.77-12.6a1.94,1.94,0,0,1,2.1,2c0,2.85-6.29,11.55-12.52,18.22-3.15,3.37-6.37,6.75-9.52,9.9a12.06,12.06,0,0,0-.45,3c0,4.8,2.55,6.3,5,6.3,3.68,0,8.7-3.9,13.87-11.55a.73.73,0,0,1,.68-.45.76.76,0,0,1,.82.67,2.94,2.94,0,0,1-.37,1.05c-5.32,8.1-10.95,12.38-15.67,12.38A8.47,8.47,0,0,1,336.78,310.34Zm5.85-8c2.32-2.33,4.57-4.73,6.9-7.2,6.22-6.6,12.22-15.07,12.22-17.1a.59.59,0,0,0-.67-.67c-1.13,0-4.88,2.7-11.93,12.75A56,56,0,0,0,342.63,302.32Z" transform="translate(-17.34 -31.16)"/><path d="M398.72,304.94c-8.17,9.45-17.84,18.15-24.82,18.15-6.67,0-10.87-4.2-10.87-11.25,0-21.52,29.39-51.44,64.27-51.44,11.47,0,19.35,4,19.35,10.57,0,14-21.83,16.95-36.23,19.13-1.2,1.65-2.32,3.22-3.52,4.8-1.58,2.09-3.3,4.27-5.1,6.52a131.54,131.54,0,0,0,19.57,16.27c1.13.75,1.5,1.43,1.5,2.1a2.26,2.26,0,0,1-2,2.18C418.22,322,405,311.32,398.72,304.94Zm-25.19,16.28c5.62,0,14.39-9.75,22.19-19.8a10.36,10.36,0,0,1-2.1-5.48c0-3.44,4.65-5.17,11.1-6.59,4.8-6.75,10.95-15.23,14-15.23.9,0,1.72.45,1.72,1.28a2.2,2.2,0,0,1-.52,1.27c-2.78,3.75-5.4,7.5-7.95,11.25,13.35-2.47,29-5.47,29-17.55,0-5.17-4.57-8.17-13.65-8.17-30.75,0-61.72,30.07-61.72,50.24C365.65,317.77,368.65,321.22,373.53,321.22Zm25-23.4c1.2-1.65,2.4-3.23,3.52-4.8l1.28-1.73c-1.05.23-1.95.46-2.7.68-2.1.68-3.38,1.8-3.38,3.45A3.84,3.84,0,0,0,398.5,297.82Z" transform="translate(-17.34 -31.16)"/></g></svg>